<?xml version="1.0" encoding="UTF-8"?>
<svg xmlns="http://www.w3.org/2000/svg" xmlns:xlink="http://www.w3.org/1999/xlink" width="50px" height="50px" viewBox="0 0 50 50" version="1.1">
<g id="surface1">
<path style=" stroke:none;fill-rule:nonzero;fill:rgb(0%,0%,0%);fill-opacity:1;" d="M 23.875 6.398438 C 22.125 6.773438 18.175781 8.550781 17 9.476562 L 16.375 10 L 17.324219 10 C 17.925781 10 19.023438 9.648438 20.324219 9.023438 C 23.824219 7.324219 27.273438 6.898438 30.949219 7.648438 C 37.25 8.949219 42.273438 13.726562 43.925781 20 C 44.476562 22.148438 44.476562 26.074219 43.898438 28.226562 C 43.375 30.148438 42.101562 32.75 40.898438 34.324219 C 40.425781 34.949219 39.949219 35.898438 39.875 36.425781 L 39.726562 37.375 L 41.050781 35.976562 C 45.050781 31.773438 46.601562 25.476562 45.101562 19.550781 C 44.601562 17.601562 43 14.425781 41.625 12.699219 C 40.101562 10.75 38.074219 9.199219 35.375 7.875 C 31.726562 6.074219 27.800781 5.574219 23.875 6.398438 Z M 23.875 6.398438 "/>
<path style=" stroke:none;fill-rule:nonzero;fill:rgb(0%,0%,0%);fill-opacity:1;" d="M 8.375 11.75 C 6.773438 12.550781 6.398438 13.398438 6.300781 16.625 C 6.175781 20.101562 6.5 21.074219 7.976562 21.699219 L 8.976562 22.125 L 9.125 29.375 L 10.726562 25.675781 L 12.324219 22 L 21.023438 22 L 21.949219 24 C 22.449219 25.074219 22.925781 25.976562 23 26 C 23.074219 26 23.425781 25.125 23.773438 24.050781 L 24.398438 22.125 L 33.601562 22.125 L 35.300781 25.875 L 36.976562 29.625 L 37 25.800781 C 37 22.023438 37 21.976562 37.601562 21.75 C 37.925781 21.648438 38.425781 21.226562 38.726562 20.851562 C 39.199219 20.25 39.25 19.875 39.25 17 C 39.25 14.125 39.199219 13.75 38.675781 12.976562 C 37.5 11.199219 37.925781 11.25 22.875 11.25 C 9.875 11.25 9.324219 11.273438 8.375 11.75 Z M 37.425781 13.101562 C 38.101562 13.699219 38.125 13.773438 38.199219 16.625 C 38.300781 19.898438 38.074219 20.574219 36.773438 20.875 C 36.050781 21.023438 36.023438 21.074219 35.949219 22.699219 L 35.875 24.375 L 35.074219 22.675781 L 34.273438 21 L 23.574219 21 L 23.25 22.148438 L 22.925781 23.324219 L 22.324219 22.148438 L 21.75 21 L 11.601562 21 L 10.824219 22.675781 L 10.050781 24.375 L 10.023438 22.726562 L 10 21.074219 L 9 20.898438 C 8.398438 20.800781 7.925781 20.550781 7.75 20.273438 C 7.625 20 7.5 18.476562 7.5 16.875 C 7.5 14 7.5 13.949219 8.226562 13.226562 L 8.949219 12.5 L 36.726562 12.5 Z M 37.425781 13.101562 "/>
<path style=" stroke:none;fill-rule:nonzero;fill:rgb(0%,0%,0%);fill-opacity:1;" d="M 16.5 14.5 C 16.5 14.648438 18.699219 14.75 22.625 14.75 C 26.550781 14.75 28.75 14.648438 28.75 14.5 C 28.75 14.351562 26.550781 14.25 22.625 14.25 C 18.699219 14.25 16.5 14.351562 16.5 14.5 Z M 16.5 14.5 "/>
<path style=" stroke:none;fill-rule:nonzero;fill:rgb(0%,0%,0%);fill-opacity:1;" d="M 12.75 16.5 C 12.75 16.648438 16.199219 16.75 22.625 16.75 C 29.050781 16.75 32.5 16.648438 32.5 16.5 C 32.5 16.351562 29.050781 16.25 22.625 16.25 C 16.199219 16.25 12.75 16.351562 12.75 16.5 Z M 12.75 16.5 "/>
<path style=" stroke:none;fill-rule:nonzero;fill:rgb(0%,0%,0%);fill-opacity:1;" d="M 16.5 18.5 C 16.5 18.648438 18.699219 18.75 22.625 18.75 C 26.550781 18.75 28.75 18.648438 28.75 18.5 C 28.75 18.351562 26.550781 18.25 22.625 18.25 C 18.699219 18.25 16.5 18.351562 16.5 18.5 Z M 16.5 18.5 "/>
<path style=" stroke:none;fill-rule:nonzero;fill:rgb(0%,0%,0%);fill-opacity:1;" d="M 21.351562 26.75 C 20.300781 27.074219 19.101562 28.5 18.726562 29.800781 C 18.351562 31.25 18.550781 34.125 19.175781 35.5 C 20.125 37.648438 21.925781 38.824219 23.625 38.398438 C 24.625 38.148438 25.898438 36.851562 26.523438 35.449219 C 27 34.398438 27.125 33.699219 27.125 32 C 27.125 29.574219 26.574219 28.199219 25.273438 27.25 C 24.398438 26.648438 22.5 26.398438 21.351562 26.75 Z M 25 28.5 C 26.074219 29.648438 26.425781 31.625 25.898438 33.699219 C 25.023438 37.273438 22.851562 38.449219 21.023438 36.351562 C 19.175781 34.25 19.023438 30.175781 20.75 28.449219 C 21.375 27.851562 21.648438 27.75 22.875 27.75 C 24.148438 27.75 24.375 27.824219 25 28.5 Z M 25 28.5 "/>
<path style=" stroke:none;fill-rule:nonzero;fill:rgb(0%,0%,0%);fill-opacity:1;" d="M 8.375 32.101562 C 6.601562 33.875 7.226562 38 9.425781 38.898438 C 10.425781 39.324219 11.175781 39.074219 12.074219 38.023438 C 12.851562 37.101562 13.101562 35.949219 12.949219 34.199219 C 12.851562 33.148438 12.675781 32.773438 12.023438 32.199219 C 10.976562 31.25 9.273438 31.199219 8.375 32.101562 Z M 11.425781 32.800781 C 11.949219 33.226562 12.25 34.800781 12.023438 35.824219 C 11.398438 38.550781 9.601562 38.949219 8.601562 36.574219 C 7.476562 33.925781 9.5 31.25 11.425781 32.800781 Z M 11.425781 32.800781 "/>
<path style=" stroke:none;fill-rule:nonzero;fill:rgb(0%,0%,0%);fill-opacity:1;" d="M 34.023438 31.898438 C 32.773438 32.800781 32.375 35.300781 33.226562 37.125 C 33.851562 38.523438 34.550781 39.050781 35.675781 39.050781 C 38.375 39.050781 39.574219 33.550781 37.226562 31.898438 C 36.898438 31.675781 36.175781 31.5 35.625 31.5 C 35.074219 31.5 34.351562 31.675781 34.023438 31.898438 Z M 36.199219 32.398438 C 37.898438 32.875 37.875 37.125 36.175781 38.023438 C 35 38.675781 33.75 37.101562 33.75 35 C 33.75 33.398438 34.324219 32.523438 35.5 32.273438 C 35.574219 32.273438 35.875 32.324219 36.199219 32.398438 Z M 36.199219 32.398438 "/>
<path style=" stroke:none;fill-rule:nonzero;fill:rgb(0%,0%,0%);fill-opacity:1;" d="M 16.875 37.5 C 16.324219 37.601562 15.351562 37.773438 14.699219 37.851562 C 13.898438 37.976562 13.5 38.148438 13.5 38.398438 C 13.5 38.601562 13.273438 38.75 13.023438 38.75 C 12.773438 38.75 12.5 38.898438 12.425781 39.074219 C 12.351562 39.25 11.851562 39.699219 11.273438 40.101562 C 10.148438 40.898438 9.875 40.824219 8.425781 39.375 C 7.75 38.675781 7.726562 38.675781 6.101562 38.949219 C 5.175781 39.101562 4.398438 39.273438 4.351562 39.324219 C 4.300781 39.375 4.050781 40.523438 3.773438 41.898438 C 3.425781 43.726562 3.375 44.425781 3.601562 44.550781 C 4.523438 45.175781 9.175781 45.875 10.925781 45.675781 C 11.726562 45.601562 12 45.648438 12 45.898438 C 12 46.273438 14.375 47.074219 16.949219 47.550781 C 19.125 47.976562 26.375 47.976562 28.625 47.550781 C 30.949219 47.125 33.5 46.273438 33.648438 45.875 C 33.75 45.648438 34.101562 45.601562 34.699219 45.675781 C 35.726562 45.824219 39.625 45.398438 41 45 C 42.574219 44.550781 42.574219 44.574219 42.101562 41.976562 C 41.875 40.675781 41.523438 39.5 41.324219 39.351562 C 41.148438 39.175781 40.351562 38.976562 39.601562 38.875 C 38.25 38.726562 38.199219 38.726562 37.125 39.726562 C 36.5 40.300781 35.925781 40.75 35.800781 40.75 C 35.476562 40.75 33.5 39.226562 33.5 38.976562 C 33.5 38.851562 33.226562 38.75 32.875 38.75 C 32.5 38.75 32.25 38.601562 32.25 38.398438 C 32.25 38.074219 31.449219 37.875 28.125 37.375 C 27.175781 37.226562 27.050781 37.273438 25.5 38.726562 C 23.300781 40.773438 22.773438 40.800781 20.476562 38.75 C 18.75 37.226562 18.601562 37.175781 16.875 37.5 Z M 19.523438 39.5 C 22.25 41.976562 23.601562 42.050781 26.023438 39.824219 L 27.523438 38.425781 L 29.300781 38.699219 C 30.25 38.824219 31.101562 39.023438 31.175781 39.101562 C 31.375 39.300781 32.523438 45.300781 32.398438 45.449219 C 32.324219 45.5 31.476562 45.75 30.5 46.023438 C 27.949219 46.699219 23.273438 47.023438 20.050781 46.75 C 17.449219 46.550781 14.199219 45.925781 13.574219 45.550781 C 13.324219 45.398438 13.398438 44.648438 13.851562 42.300781 C 14.175781 40.601562 14.5 39.175781 14.550781 39.101562 C 14.726562 38.925781 16.726562 38.550781 17.648438 38.523438 C 18.25 38.5 18.699219 38.75 19.523438 39.5 Z M 8.398438 40.625 C 9.851562 41.824219 10.800781 41.800781 12.226562 40.574219 C 13.050781 39.898438 13.273438 39.773438 13.175781 40.148438 C 13.101562 40.398438 12.898438 41.351562 12.75 42.25 C 12.273438 45.074219 12.601562 44.851562 9.273438 44.675781 C 5.976562 44.5 4.5 44.175781 4.5 43.574219 C 4.5 43.351562 4.625 42.476562 4.800781 41.601562 C 5.050781 40.199219 5.148438 40.023438 5.726562 39.925781 C 7.101562 39.699219 7.351562 39.773438 8.398438 40.625 Z M 33.824219 40.625 C 35.199219 41.824219 36.199219 41.800781 37.574219 40.601562 C 38.523438 39.800781 38.726562 39.726562 39.625 39.875 C 40.148438 39.949219 40.648438 40.074219 40.699219 40.125 C 40.851562 40.273438 41.5 43.824219 41.398438 43.925781 C 41.125 44.199219 37.148438 44.75 35.476562 44.75 C 33.25 44.75 33.523438 45.101562 32.898438 41.675781 C 32.726562 40.625 32.625 39.75 32.675781 39.75 C 32.75 39.75 33.25 40.148438 33.824219 40.625 Z M 33.824219 40.625 "/>
</g>
</svg>
