<?xml version="1.0" encoding="UTF-8"?>
<svg xmlns="http://www.w3.org/2000/svg" xmlns:xlink="http://www.w3.org/1999/xlink" width="50px" height="50px" viewBox="0 0 50 50" version="1.1">
<g id="surface1">
<path style=" stroke:none;fill-rule:nonzero;fill:rgb(0%,0%,0%);fill-opacity:1;" d="M 34.617188 0.242188 C 34.382812 0.46875 34.375 0.546875 34.375 1.5625 C 34.375 2.578125 34.382812 2.65625 34.617188 2.882812 C 34.765625 3.039062 34.96875 3.125 35.15625 3.125 C 35.34375 3.125 35.546875 3.039062 35.695312 2.882812 C 35.929688 2.65625 35.9375 2.578125 35.9375 1.5625 C 35.9375 0.546875 35.929688 0.46875 35.695312 0.242188 C 35.546875 0.0859375 35.34375 0 35.15625 0 C 34.96875 0 34.765625 0.0859375 34.617188 0.242188 Z M 34.617188 0.242188 "/>
<path style=" stroke:none;fill-rule:nonzero;fill:rgb(0%,0%,0%);fill-opacity:1;" d="M 29.929688 1.023438 C 29.796875 1.152344 29.6875 1.375 29.6875 1.515625 C 29.6875 1.855469 30.617188 3.679688 30.851562 3.808594 C 31.347656 4.070312 32.03125 3.703125 32.03125 3.171875 C 32.03125 2.832031 31.101562 1.007812 30.867188 0.878906 C 30.546875 0.710938 30.175781 0.773438 29.929688 1.023438 Z M 29.929688 1.023438 "/>
<path style=" stroke:none;fill-rule:nonzero;fill:rgb(0%,0%,0%);fill-opacity:1;" d="M 39.421875 0.890625 C 39.199219 1.015625 38.28125 2.851562 38.28125 3.171875 C 38.28125 3.703125 38.964844 4.070312 39.460938 3.808594 C 39.695312 3.679688 40.625 1.855469 40.625 1.515625 C 40.625 0.976562 39.914062 0.605469 39.421875 0.890625 Z M 39.421875 0.890625 "/>
<path style=" stroke:none;fill-rule:nonzero;fill:rgb(0%,0%,0%);fill-opacity:1;" d="M 26.804688 4.148438 C 26.554688 4.394531 26.492188 4.765625 26.660156 5.085938 C 26.789062 5.320312 28.613281 6.25 28.953125 6.25 C 29.484375 6.25 29.851562 5.566406 29.589844 5.070312 C 29.460938 4.835938 27.636719 3.90625 27.296875 3.90625 C 27.15625 3.90625 26.933594 4.015625 26.804688 4.148438 Z M 26.804688 4.148438 "/>
<path style=" stroke:none;fill-rule:nonzero;fill:rgb(0%,0%,0%);fill-opacity:1;" d="M 41.777344 4.394531 C 40.8125 4.890625 40.625 5.070312 40.625 5.515625 C 40.625 5.839844 41.035156 6.25 41.359375 6.25 C 41.699219 6.25 43.523438 5.320312 43.652344 5.085938 C 43.914062 4.578125 43.546875 3.898438 43 3.914062 C 42.851562 3.914062 42.296875 4.132812 41.777344 4.394531 Z M 41.777344 4.394531 "/>
<path style=" stroke:none;fill-rule:nonzero;fill:rgb(0%,0%,0%);fill-opacity:1;" d="M 33.671875 4.835938 C 32.15625 5.148438 30.90625 6.074219 30.292969 7.324219 C 29.941406 8.039062 29.648438 9.414062 29.71875 10.007812 C 29.734375 10.226562 30.273438 11.789062 30.898438 13.476562 C 31.90625 16.210938 32.03125 16.632812 32.03125 17.179688 C 32.03125 17.773438 32.023438 17.792969 31.816406 17.734375 C 30.410156 17.324219 29.902344 17.265625 27.375 17.21875 L 24.824219 17.167969 L 24.757812 16.816406 C 24.679688 16.386719 24.09375 14.902344 23.835938 14.5 L 23.652344 14.210938 L 24.71875 13.125 C 26.171875 11.648438 26.179688 11.789062 24.382812 9.992188 C 22.585938 8.195312 22.726562 8.203125 21.269531 9.648438 L 20.203125 10.695312 L 19.367188 10.28125 C 18.898438 10.058594 18.210938 9.796875 17.851562 9.695312 L 17.1875 9.53125 L 17.1875 8.125 C 17.1875 6.777344 17.179688 6.71875 16.945312 6.492188 C 16.710938 6.25 16.6875 6.25 14.84375 6.25 C 13 6.25 12.976562 6.25 12.742188 6.492188 C 12.507812 6.71875 12.5 6.777344 12.5 8.132812 L 12.5 9.550781 L 12.140625 9.617188 C 11.699219 9.695312 10.214844 10.28125 9.8125 10.539062 L 9.523438 10.722656 L 8.4375 9.65625 C 6.960938 8.203125 7.101562 8.195312 5.304688 9.992188 C 3.507812 11.789062 3.515625 11.648438 4.96875 13.125 L 6.035156 14.210938 L 5.851562 14.5 C 5.59375 14.902344 5.007812 16.386719 4.929688 16.828125 L 4.863281 17.1875 L 3.835938 17.1875 C 2.890625 17.1875 2.804688 17.207031 2.585938 17.429688 C 2.34375 17.664062 2.34375 17.6875 2.34375 19.53125 C 2.34375 21.375 2.34375 21.398438 2.585938 21.632812 C 2.804688 21.855469 2.890625 21.875 3.835938 21.875 L 4.863281 21.875 L 4.929688 22.234375 C 5.007812 22.675781 5.59375 24.160156 5.851562 24.5625 L 6.035156 24.851562 L 4.96875 25.9375 C 3.515625 27.414062 3.507812 27.273438 5.304688 29.070312 C 7.101562 30.867188 6.960938 30.859375 8.4375 29.40625 L 9.523438 28.339844 L 9.8125 28.523438 C 10.214844 28.78125 11.699219 29.367188 12.140625 29.445312 L 12.5 29.511719 L 12.5 30.929688 C 12.5 32.285156 12.507812 32.34375 12.742188 32.570312 C 12.96875 32.804688 13.015625 32.8125 14.484375 32.8125 L 15.984375 32.8125 L 16.308594 33.710938 C 17.871094 38.183594 21.660156 41.347656 26.296875 42.03125 C 29.171875 42.460938 32.117188 41.875 34.578125 40.371094 L 35.175781 40.007812 L 39.289062 44.109375 C 43.652344 48.457031 43.632812 48.4375 44.53125 48.4375 C 45.742188 48.4375 46.875 47.304688 46.875 46.09375 C 46.875 45.195312 46.894531 45.214844 42.546875 40.851562 L 38.445312 36.738281 L 38.808594 36.140625 C 41.71875 31.347656 41.046875 25.15625 37.179688 21.125 L 36.398438 20.3125 L 37.101562 20.3125 C 37.714844 20.3125 37.832031 20.28125 38.039062 20.070312 C 38.28125 19.835938 38.28125 19.804688 38.28125 18.183594 C 38.28125 16.632812 38.300781 16.484375 38.535156 15.859375 C 39.875 12.34375 40.625 10.175781 40.625 9.863281 C 40.625 9.210938 40.351562 8.015625 40.046875 7.390625 C 39.492188 6.21875 38.496094 5.371094 37.21875 4.96875 C 36.375 4.707031 34.589844 4.640625 33.671875 4.835938 Z M 36.960938 6.542969 C 38.09375 6.972656 38.835938 8 39.015625 9.40625 C 39.082031 9.953125 39.054688 10.039062 38.027344 12.792969 L 36.960938 15.625 L 33.351562 15.625 L 32.285156 12.792969 C 31.257812 10.039062 31.230469 9.953125 31.296875 9.40625 C 31.503906 7.734375 32.441406 6.679688 34.015625 6.347656 C 34.726562 6.191406 36.308594 6.296875 36.960938 6.542969 Z M 15.625 9.121094 C 15.625 10.75 15.625 10.75 16.894531 11.074219 C 17.890625 11.320312 18.90625 11.75 19.640625 12.207031 C 20.371094 12.6875 20.5 12.636719 21.648438 11.503906 L 22.664062 10.507812 L 23.261719 11.113281 L 23.867188 11.710938 L 22.871094 12.726562 C 22.101562 13.507812 21.875 13.796875 21.875 14.003906 C 21.875 14.148438 22.050781 14.5625 22.265625 14.914062 C 22.480469 15.273438 22.78125 15.898438 22.9375 16.296875 C 23.210938 17.03125 23.496094 18.054688 23.429688 18.09375 C 23.40625 18.105469 23.066406 18.273438 22.664062 18.457031 C 22.265625 18.640625 21.582031 19.042969 21.140625 19.34375 L 20.34375 19.890625 L 20.28125 19.140625 C 20.125 17.1875 18.976562 15.476562 17.246094 14.65625 C 16.347656 14.21875 15.683594 14.0625 14.8125 14.0625 C 11.875 14.070312 9.382812 16.5625 9.375 19.5 C 9.375 20.371094 9.53125 21.035156 9.96875 21.945312 C 10.605469 23.28125 11.738281 24.25 13.28125 24.765625 C 13.90625 24.980469 15.78125 25.007812 16.25 24.8125 C 16.40625 24.757812 16.554688 24.71875 16.570312 24.746094 C 16.59375 24.765625 16.484375 25.15625 16.328125 25.59375 C 15.820312 27.023438 15.683594 27.910156 15.671875 29.65625 L 15.671875 31.25 L 14.0625 31.25 L 14.0625 29.941406 C 14.0625 28.3125 14.0625 28.3125 12.792969 27.988281 C 11.796875 27.742188 10.78125 27.3125 10.046875 26.855469 C 9.316406 26.375 9.1875 26.425781 8.039062 27.558594 L 7.023438 28.554688 L 6.425781 27.949219 L 5.820312 27.351562 L 6.816406 26.335938 C 7.949219 25.1875 8 25.058594 7.519531 24.328125 C 7.0625 23.59375 6.632812 22.578125 6.386719 21.582031 C 6.074219 20.359375 6.015625 20.3125 4.824219 20.3125 L 3.90625 20.3125 L 3.90625 18.75 L 4.824219 18.75 C 6.015625 18.75 6.074219 18.703125 6.386719 17.480469 C 6.632812 16.484375 7.0625 15.46875 7.519531 14.734375 C 8 14.003906 7.949219 13.875 6.816406 12.726562 L 5.820312 11.710938 L 6.425781 11.113281 L 7.023438 10.507812 L 8.039062 11.503906 C 9.1875 12.636719 9.316406 12.6875 10.046875 12.207031 C 10.78125 11.75 11.796875 11.320312 12.792969 11.074219 C 14.0625 10.75 14.0625 10.75 14.0625 9.121094 L 14.0625 7.8125 L 15.625 7.8125 Z M 16.445312 15.996094 C 17.335938 16.40625 17.898438 16.972656 18.339844 17.851562 C 18.679688 18.554688 18.703125 18.640625 18.703125 19.53125 C 18.703125 20.421875 18.679688 20.507812 18.339844 21.210938 C 17.898438 22.101562 17.335938 22.648438 16.425781 23.078125 C 15.828125 23.359375 15.683594 23.390625 14.84375 23.390625 C 14.003906 23.390625 13.859375 23.359375 13.261719 23.078125 C 12.351562 22.648438 11.789062 22.101562 11.347656 21.210938 C 11.007812 20.507812 10.984375 20.421875 10.984375 19.539062 C 10.984375 18.691406 11.015625 18.546875 11.296875 17.949219 C 11.6875 17.117188 12.246094 16.515625 12.976562 16.132812 C 13.742188 15.722656 14.171875 15.625 15.058594 15.664062 C 15.65625 15.695312 15.957031 15.773438 16.445312 15.996094 Z M 36.71875 17.96875 L 36.71875 18.75 L 35.449219 18.75 C 34.492188 18.75 34.101562 18.710938 33.886719 18.601562 C 33.601562 18.457031 33.59375 18.417969 33.59375 17.820312 L 33.59375 17.1875 L 36.71875 17.1875 Z M 29.539062 18.847656 C 31.984375 19.199219 34.121094 20.265625 35.839844 21.972656 C 39.960938 26.09375 40.136719 32.53125 36.257812 36.984375 C 35.125 38.289062 33.027344 39.640625 31.386719 40.125 C 27.65625 41.230469 23.847656 40.421875 20.929688 37.910156 C 17.695312 35.125 16.386719 30.410156 17.726562 26.335938 C 18.078125 25.265625 18.742188 23.984375 19.433594 23.054688 C 21.738281 20 25.78125 18.320312 29.539062 18.847656 Z M 41.4375 41.875 C 44.953125 45.398438 45.3125 45.789062 45.3125 46.074219 C 45.3125 46.503906 44.941406 46.875 44.511719 46.875 C 44.226562 46.875 43.835938 46.515625 40.28125 42.96875 L 36.375 39.0625 L 36.914062 38.523438 C 37.207031 38.234375 37.46875 37.988281 37.5 37.988281 C 37.53125 37.988281 39.296875 39.734375 41.4375 41.875 Z M 41.4375 41.875 "/>
<path style=" stroke:none;fill-rule:nonzero;fill:rgb(0%,0%,0%);fill-opacity:1;" d="M 26.492188 20.449219 C 24.492188 20.828125 22.921875 21.671875 21.484375 23.132812 C 20.226562 24.40625 19.414062 25.851562 18.976562 27.597656 C 18.710938 28.640625 18.742188 30.859375 19.03125 31.933594 C 19.523438 33.757812 20.203125 34.953125 21.53125 36.28125 C 22.851562 37.585938 24.070312 38.300781 25.878906 38.789062 C 27.03125 39.101562 29.160156 39.101562 30.34375 38.789062 C 32.101562 38.328125 33.46875 37.558594 34.726562 36.289062 C 35.976562 35.039062 36.777344 33.640625 37.226562 31.914062 C 37.539062 30.722656 37.539062 28.59375 37.226562 27.441406 C 36.726562 25.605469 36.046875 24.421875 34.71875 23.09375 C 33.378906 21.765625 31.992188 20.976562 30.265625 20.554688 C 29.375 20.34375 27.363281 20.28125 26.492188 20.449219 Z M 29.980469 22.109375 C 32.011719 22.65625 33.5625 23.769531 34.679688 25.46875 C 37.011719 29.023438 35.96875 33.875 32.351562 36.230469 C 31.023438 37.101562 29.824219 37.453125 28.125 37.453125 C 25.917969 37.453125 24.140625 36.71875 22.617188 35.195312 C 21.09375 33.671875 20.359375 31.894531 20.359375 29.6875 C 20.359375 27.988281 20.710938 26.789062 21.582031 25.460938 C 22.753906 23.652344 24.578125 22.429688 26.710938 22.011719 C 27.539062 21.855469 29.21875 21.894531 29.980469 22.109375 Z M 29.980469 22.109375 "/>
<path style=" stroke:none;fill-rule:nonzero;fill:rgb(0%,0%,0%);fill-opacity:1;" d="M 22.117188 29.148438 C 21.828125 29.433594 21.796875 29.953125 22.023438 31.007812 C 22.570312 33.632812 24.941406 35.695312 27.65625 35.90625 C 28.359375 35.96875 28.40625 35.957031 28.652344 35.710938 C 29.160156 35.203125 28.820312 34.375 28.09375 34.375 C 25.671875 34.375 23.4375 32.179688 23.4375 29.804688 C 23.4375 29.277344 23.117188 28.90625 22.65625 28.90625 C 22.46875 28.90625 22.265625 28.992188 22.117188 29.148438 Z M 22.117188 29.148438 "/>
</g>
</svg>
