<?xml version="1.0" encoding="UTF-8"?>
<svg xmlns="http://www.w3.org/2000/svg" xmlns:xlink="http://www.w3.org/1999/xlink" width="50px" height="50px" viewBox="0 0 50 50" version="1.1">
<g id="surface1">
<path style=" stroke:none;fill-rule:nonzero;fill:rgb(0%,0%,0%);fill-opacity:1;" d="M 6.796875 4.648438 C 5.039062 5.703125 4.296875 6.953125 4.296875 8.828125 C 4.296875 11.015625 5.625 12.929688 7.617188 13.59375 C 10.703125 14.609375 14.0625 12.1875 14.0625 8.945312 C 14.0625 7.148438 12.773438 5.15625 11.132812 4.453125 C 9.335938 3.710938 8.242188 3.75 6.796875 4.648438 Z M 10.898438 5.625 C 12.890625 6.679688 13.476562 9.335938 12.070312 11.09375 C 10.898438 12.578125 9.570312 13.007812 7.96875 12.5 C 6.445312 11.992188 5.46875 10.625 5.46875 8.984375 C 5.46875 7.382812 6.015625 6.40625 7.34375 5.703125 C 8.671875 4.960938 9.53125 4.921875 10.898438 5.625 Z M 10.898438 5.625 "/>
<path style=" stroke:none;fill-rule:nonzero;fill:rgb(0%,0%,0%);fill-opacity:1;" d="M 18.164062 9.023438 C 18.007812 9.257812 18.242188 9.53125 18.710938 9.648438 C 19.453125 9.84375 19.53125 10.15625 19.53125 12.34375 L 19.53125 14.84375 L 11.757812 14.84375 C 4.375 14.84375 3.945312 14.882812 2.695312 15.742188 C 0.273438 17.34375 0 18.398438 0 26.835938 L 0 34.375 L 3.515625 34.375 L 3.515625 39.21875 C 3.515625 45.351562 3.476562 45.3125 9.257812 45.3125 C 15.273438 45.3125 14.84375 46.328125 14.84375 31.835938 L 14.84375 19.921875 L 19.53125 19.921875 L 19.53125 23.75 C 19.53125 26.210938 19.6875 27.734375 20 28.046875 C 20.3125 28.359375 22.421875 28.515625 26.835938 28.515625 L 33.203125 28.515625 L 33.203125 36.054688 L 28.867188 40.703125 C 25.703125 44.0625 24.609375 45.46875 24.921875 45.78125 C 25.3125 46.171875 26.484375 45.078125 32.539062 38.476562 L 33.984375 36.914062 L 38.398438 41.601562 C 41.445312 44.765625 42.929688 46.09375 43.125 45.78125 C 43.320312 45.429688 41.953125 43.671875 39.101562 40.664062 L 34.765625 36.015625 L 34.765625 28.515625 L 40.976562 28.515625 C 44.414062 28.515625 47.460938 28.398438 47.8125 28.28125 C 48.359375 28.085938 48.4375 26.875 48.4375 18.945312 C 48.4375 10.039062 48.4375 9.84375 49.257812 9.648438 C 49.726562 9.53125 49.960938 9.257812 49.804688 9.023438 C 49.453125 8.4375 18.515625 8.4375 18.164062 9.023438 Z M 47.1875 18.4375 L 47.070312 27.148438 L 34.101562 27.226562 L 21.09375 27.34375 L 21.09375 19.921875 L 22.734375 19.921875 C 24.765625 19.921875 25.78125 19.0625 25.78125 17.34375 C 25.78125 15.742188 24.609375 14.84375 22.578125 14.84375 L 21.09375 14.84375 L 21.09375 9.765625 L 47.265625 9.765625 Z M 24.414062 17.382812 L 24.414062 18.554688 L 13.867188 18.945312 L 13.75 31.015625 C 13.710938 39.140625 13.515625 43.28125 13.242188 43.632812 C 13.007812 43.90625 12.109375 44.140625 11.289062 44.140625 L 9.804688 44.140625 L 9.6875 38.867188 C 9.53125 31.835938 8.828125 31.835938 8.671875 38.90625 L 8.554688 44.179688 L 4.882812 43.945312 L 4.6875 34.609375 C 4.53125 27.617188 4.375 25.234375 4.023438 25.078125 C 3.632812 24.960938 3.515625 25.9375 3.515625 29.0625 L 3.515625 33.203125 L 1.171875 33.203125 L 1.171875 26.367188 C 1.171875 15.625 0.664062 16.015625 14.453125 16.132812 L 24.414062 16.210938 Z M 24.414062 17.382812 "/>
<path style=" stroke:none;fill-rule:nonzero;fill:rgb(0%,0%,0%);fill-opacity:1;" d="M 30.351562 13.125 C 29.648438 13.867188 31.09375 14.0625 36.953125 14.0625 C 41.953125 14.0625 43.398438 13.945312 43.28125 13.554688 C 43.125 13.203125 41.445312 13.046875 36.875 12.96875 C 33.4375 12.929688 30.507812 13.007812 30.351562 13.125 Z M 30.351562 13.125 "/>
<path style=" stroke:none;fill-rule:nonzero;fill:rgb(0%,0%,0%);fill-opacity:1;" d="M 30.351562 17.8125 C 29.570312 18.59375 30.625 18.75 36.757812 18.75 C 41.914062 18.75 43.398438 18.632812 43.28125 18.242188 C 43.125 17.890625 41.445312 17.734375 36.875 17.65625 C 33.4375 17.617188 30.507812 17.695312 30.351562 17.8125 Z M 30.351562 17.8125 "/>
<path style=" stroke:none;fill-rule:nonzero;fill:rgb(0%,0%,0%);fill-opacity:1;" d="M 30.195312 23.125 C 30.3125 23.515625 31.953125 23.632812 36.71875 23.632812 C 41.484375 23.632812 43.125 23.515625 43.28125 23.125 C 43.398438 22.773438 41.914062 22.65625 36.71875 22.65625 C 31.523438 22.65625 30.039062 22.773438 30.195312 23.125 Z M 30.195312 23.125 "/>
</g>
</svg>
