<?xml version="1.0" encoding="UTF-8"?>
<svg xmlns="http://www.w3.org/2000/svg" xmlns:xlink="http://www.w3.org/1999/xlink" width="50px" height="50px" viewBox="0 0 50 50" version="1.1">
<g id="surface1">
<path style=" stroke:none;fill-rule:nonzero;fill:rgb(0%,0%,0%);fill-opacity:1;" d="M 32.890625 3.398438 C 32.96875 3.789062 33.359375 4.101562 33.789062 4.101562 C 34.21875 4.101562 34.609375 3.789062 34.6875 3.398438 C 34.804688 2.890625 34.570312 2.734375 33.789062 2.734375 C 33.007812 2.734375 32.773438 2.890625 32.890625 3.398438 Z M 32.890625 3.398438 "/>
<path style=" stroke:none;fill-rule:nonzero;fill:rgb(0%,0%,0%);fill-opacity:1;" d="M 5.742188 3.984375 C 3.984375 5.351562 4.296875 7.8125 6.367188 8.984375 C 7.304688 9.492188 7.539062 9.492188 8.476562 8.984375 C 10 8.125 10.585938 6.835938 10.078125 5.429688 C 9.453125 3.632812 7.226562 2.890625 5.742188 3.984375 Z M 8.085938 6.09375 C 8.398438 6.914062 7.578125 7.734375 6.992188 7.148438 C 6.484375 6.640625 6.796875 5.46875 7.421875 5.46875 C 7.65625 5.46875 7.929688 5.742188 8.085938 6.09375 Z M 8.085938 6.09375 "/>
<path style=" stroke:none;fill-rule:nonzero;fill:rgb(0%,0%,0%);fill-opacity:1;" d="M 17.929688 5.429688 C 13.90625 6.992188 11.367188 9.453125 9.453125 13.59375 C 8.164062 16.40625 8.007812 20.9375 9.101562 24.140625 C 9.960938 26.601562 12.304688 29.648438 14.570312 31.289062 L 16.210938 32.460938 L 16.601562 43.945312 L 17.695312 44.0625 C 18.515625 44.179688 18.75 44.414062 18.75 45.117188 C 18.75 46.640625 20.46875 47.65625 23.046875 47.65625 C 25.625 47.65625 27.34375 46.640625 27.34375 45.117188 C 27.34375 44.414062 27.578125 44.179688 28.4375 44.0625 L 29.492188 43.945312 L 29.882812 32.539062 L 31.640625 31.171875 C 32.617188 30.46875 34.0625 28.984375 34.84375 27.929688 C 36.992188 25.117188 37.695312 22.734375 37.695312 18.476562 L 37.695312 14.921875 L 40.585938 11.953125 C 43.320312 9.101562 43.4375 8.90625 43.242188 7.5 C 42.929688 5.703125 41.757812 4.6875 39.921875 4.6875 C 38.710938 4.6875 38.164062 5.039062 36.289062 6.875 L 34.101562 9.0625 L 32.070312 7.617188 C 29.023438 5.429688 26.71875 4.6875 22.929688 4.6875 C 20.820312 4.726562 19.140625 4.960938 17.929688 5.429688 Z M 28.515625 7.695312 C 29.492188 8.203125 30.820312 9.023438 31.445312 9.53125 L 32.617188 10.507812 L 30.390625 12.773438 L 28.164062 15 L 27.070312 13.984375 C 24.726562 11.796875 22.617188 11.640625 21.09375 13.554688 C 19.570312 15.507812 19.960938 16.5625 23.90625 20.546875 C 25.859375 22.578125 27.65625 24.21875 27.890625 24.21875 C 28.125 24.21875 29.921875 22.617188 31.875 20.664062 C 35.15625 17.382812 35.46875 17.148438 35.742188 17.96875 C 36.132812 19.21875 35.625 22.1875 34.609375 24.414062 C 33.476562 26.914062 31.601562 29.0625 29.453125 30.3125 C 27.890625 31.25 27.734375 31.445312 27.734375 32.851562 L 27.734375 34.375 L 18.359375 34.375 L 18.359375 32.851562 C 18.359375 31.445312 18.203125 31.25 16.640625 30.3125 C 10 26.445312 8.28125 16.992188 13.125 11.210938 C 14.492188 9.570312 16.757812 7.929688 18.632812 7.226562 C 20.9375 6.367188 26.289062 6.601562 28.515625 7.695312 Z M 41.210938 7.460938 C 41.445312 8.164062 40.390625 9.414062 34.726562 15.078125 L 27.929688 21.875 L 25.3125 19.257812 C 22.304688 16.289062 21.835938 15.351562 22.890625 14.570312 C 23.90625 13.828125 24.0625 13.867188 26.210938 15.898438 L 28.125 17.695312 L 33.710938 12.1875 C 39.414062 6.523438 40.664062 5.703125 41.210938 7.460938 Z M 27.734375 37.304688 L 27.734375 38.28125 L 18.359375 38.28125 L 18.359375 36.328125 L 27.734375 36.328125 Z M 27.734375 41.210938 L 27.734375 42.1875 L 18.359375 42.1875 L 18.359375 40.234375 L 27.734375 40.234375 Z M 25.3125 44.804688 C 25.195312 45.390625 24.765625 45.507812 23.046875 45.507812 C 21.328125 45.507812 20.898438 45.390625 20.78125 44.804688 C 20.664062 44.21875 20.976562 44.140625 23.046875 44.140625 C 25.117188 44.140625 25.429688 44.21875 25.3125 44.804688 Z M 25.3125 44.804688 "/>
<path style=" stroke:none;fill-rule:nonzero;fill:rgb(0%,0%,0%);fill-opacity:1;" d="M 19.335938 9.0625 C 17.695312 9.648438 15.351562 11.445312 14.21875 12.96875 C 12.070312 15.820312 11.601562 20.546875 13.164062 23.59375 C 14.6875 26.640625 17.96875 29.570312 19.335938 29.0625 C 20.351562 28.671875 20 27.773438 18.359375 26.757812 C 15.195312 24.765625 13.554688 20.664062 14.492188 17.070312 C 15.273438 13.945312 18.984375 10.546875 21.640625 10.546875 C 23.085938 10.546875 23.828125 10.15625 23.828125 9.335938 C 23.828125 8.710938 23.554688 8.59375 22.1875 8.632812 C 21.25 8.632812 20 8.828125 19.335938 9.0625 Z M 19.335938 9.0625 "/>
<path style=" stroke:none;fill-rule:nonzero;fill:rgb(0%,0%,0%);fill-opacity:1;" d="M 4.609375 13.75 C 4.296875 14.570312 4.6875 15.234375 5.46875 15.234375 C 6.210938 15.234375 6.640625 14.570312 6.367188 13.75 C 6.25 13.515625 5.859375 13.28125 5.46875 13.28125 C 5.078125 13.28125 4.6875 13.515625 4.609375 13.75 Z M 4.609375 13.75 "/>
<path style=" stroke:none;fill-rule:nonzero;fill:rgb(0%,0%,0%);fill-opacity:1;" d="M 40.703125 22.929688 C 40.78125 23.320312 41.171875 23.632812 41.601562 23.632812 C 42.03125 23.632812 42.421875 23.320312 42.5 22.929688 C 42.617188 22.421875 42.382812 22.265625 41.601562 22.265625 C 40.820312 22.265625 40.585938 22.421875 40.703125 22.929688 Z M 40.703125 22.929688 "/>
<path style=" stroke:none;fill-rule:nonzero;fill:rgb(0%,0%,0%);fill-opacity:1;" d="M 5.546875 28.789062 C 5.703125 29.6875 7.1875 29.6875 7.34375 28.789062 C 7.460938 28.28125 7.226562 28.125 6.445312 28.125 C 5.664062 28.125 5.429688 28.28125 5.546875 28.789062 Z M 5.546875 28.789062 "/>
<path style=" stroke:none;fill-rule:nonzero;fill:rgb(0%,0%,0%);fill-opacity:1;" d="M 39.648438 31.054688 C 38.28125 32.382812 38.359375 34.101562 39.804688 35.585938 C 41.015625 36.796875 41.875 36.953125 43.554688 36.328125 C 44.6875 35.898438 45.820312 33.632812 45.429688 32.539062 C 44.53125 30 41.445312 29.21875 39.648438 31.054688 Z M 43.28125 33.28125 C 43.359375 34.023438 43.203125 34.375 42.578125 34.570312 C 41.640625 34.882812 40.625 34.179688 40.625 33.203125 C 40.625 32.265625 41.015625 31.992188 42.1875 32.109375 C 42.929688 32.1875 43.203125 32.5 43.28125 33.28125 Z M 43.28125 33.28125 "/>
<path style=" stroke:none;fill-rule:nonzero;fill:rgb(0%,0%,0%);fill-opacity:1;" d="M 5.273438 34.765625 C 4.375 35.78125 4.375 37.65625 5.273438 38.671875 C 6.25 39.726562 8.59375 39.726562 9.570312 38.671875 C 11.25 36.796875 9.960938 33.984375 7.421875 33.984375 C 6.484375 33.984375 5.742188 34.257812 5.273438 34.765625 Z M 8.203125 36.71875 C 8.203125 37.226562 7.929688 37.5 7.421875 37.5 C 6.914062 37.5 6.640625 37.226562 6.640625 36.71875 C 6.640625 36.210938 6.914062 35.9375 7.421875 35.9375 C 7.929688 35.9375 8.203125 36.210938 8.203125 36.71875 Z M 8.203125 36.71875 "/>
<path style=" stroke:none;fill-rule:nonzero;fill:rgb(0%,0%,0%);fill-opacity:1;" d="M 34.921875 39.257812 C 34.765625 39.609375 34.84375 40.078125 35.078125 40.3125 C 35.664062 40.898438 36.796875 40.351562 36.640625 39.570312 C 36.484375 38.671875 35.234375 38.4375 34.921875 39.257812 Z M 34.921875 39.257812 "/>
</g>
</svg>
